<svg xmlns="http://www.w3.org/2000/svg" version="1.1" xmlns:xlink="http://www.w3.org/1999/xlink" xmlns:svgjs="http://svgjs.dev/svgjs" width="1500" height="1500" viewBox="0 0 1500 1500"><rect width="1500" height="1500" fill="#ffffff"></rect><g transform="matrix(0.6666666666666666,0,0,0.6666666666666666,249.39393939393938,435.99032258064517)"><svg viewBox="0 0 396 248" data-background-color="#ffffff" preserveAspectRatio="xMidYMid meet" height="939" width="1500" xmlns="http://www.w3.org/2000/svg" xmlns:xlink="http://www.w3.org/1999/xlink"><g id="tight-bounds" transform="matrix(1,0,0,1,0.2400000000000091,0.4000000000000057)"><svg viewBox="0 0 395.52 247.2" height="247.2" width="395.52"><g><svg></svg></g><g><svg viewBox="0 0 395.52 247.2" height="247.2" width="395.52"><g transform="matrix(1,0,0,1,134.57083604845482,47.215199999999996)"><svg viewBox="0 0 126.37832790309034 152.7696" height="152.7696" width="126.37832790309034"><g><svg viewBox="0 0 126.37832790309034 152.7696" height="152.7696" width="126.37832790309034"><g><svg viewBox="0 0 126.37832790309034 152.7696" height="152.7696" width="126.37832790309034"><g><svg viewBox="0 0 126.37832790309034 152.7696" height="152.7696" width="126.37832790309034"><g id="textblocktransform"><svg viewBox="0 0 126.37832790309034 152.7696" height="152.7696" width="126.37832790309034" id="textblock"><g><svg viewBox="0 0 126.37832790309034 152.7696" height="152.7696" width="126.37832790309034"><g transform="matrix(1,0,0,1,0,0)"><svg width="126.37832790309034" viewBox="2.45 -32.55 27.754166666659998 33.55" height="152.7696" data-palette-color="#ca3433"><path d="M17.9 1L17.9 1Q13.7 1 10.2-1 6.7-3 4.58-6.7 2.45-10.4 2.45-15.55L2.45-15.55Q2.45-20.65 4.45-24.48 6.45-28.3 10.13-30.43 13.8-32.55 18.8-32.55L18.8-32.55Q20.6-32.55 22.53-32.2 24.45-31.85 26.1-31.03 27.75-30.2 28.78-28.85 29.8-27.5 29.8-25.5L29.8-25.5Q29.85-23.35 28.5-21.73 27.15-20.1 24.7-20.1L24.7-20.1Q23.2-20.1 22.58-20.83 21.95-21.55 22-21.9L22-21.9Q22-22.05 22.63-22.43 23.25-22.8 23.88-23.58 24.5-24.35 24.5-25.65L24.5-25.65Q24.5-27.9 23-29.23 21.5-30.55 18.75-30.55L18.75-30.55Q15.75-30.55 13.38-28.85 11-27.15 9.65-23.88 8.3-20.6 8.3-15.85L8.3-15.85Q8.3-11.85 9.73-8.58 11.15-5.3 13.73-3.38 16.3-1.45 19.7-1.45L19.7-1.45Q22.4-1.45 24.33-2.58 26.25-3.7 27.8-6.2L27.8-6.2Q28.25-7.05 29.4-6.35L29.4-6.35Q29.85-6.05 30.1-5.63 30.35-5.2 30-4.75L30-4.75Q28.1-2.35 26.4-1.13 24.7 0.1 22.7 0.55 20.7 1 17.9 1Z" opacity="1" transform="matrix(1,0,0,1,0,0)" fill="#ca3433" class="wordmark-text-0" data-fill-palette-color="primary" id="text-0"></path></svg></g></svg></g></svg></g></svg></g></svg></g></svg></g></svg></g><path d="M316.872 41.215L316.872 0 69.672 0 69.672 247.2 316.872 247.2 316.872 205.985 303.095 205.985 303.095 233.423 83.449 233.423 83.449 13.777 303.095 13.777 303.095 41.215Z" fill="#ca3433" stroke="transparent" data-fill-palette-color="tertiary"></path></svg></g><defs></defs></svg><rect width="395.52" height="247.2" fill="none" stroke="none" visibility="hidden"></rect></g></svg></g></svg>